<svg xmlns="http://www.w3.org/2000/svg" xmlns:xlink="http://www.w3.org/1999/xlink" width="219.443" height="54.212" viewBox="0 0 219.443 54.212">
  <defs>
    <clipPath id="clip-path">
      <rect id="Rectángulo_441" data-name="Rectángulo 441" width="219.443" height="54.212" fill="#334798"/>
    </clipPath>
  </defs>
  <g id="Grupo_2" data-name="Grupo 2" transform="translate(0)">
    <path id="Trazado_874" data-name="Trazado 874" d="M162.814,0V6.15h-7.786V0h-1.982V14.978h1.982V7.918h7.786v7.06H164.8V0Z" transform="translate(-3.765 0)" fill="#334798"/>
    <g id="Grupo_485" data-name="Grupo 485" transform="translate(0 0)">
      <g id="Grupo_484" data-name="Grupo 484" clip-path="url(#clip-path)">
        <path id="Trazado_875" data-name="Trazado 875" d="M175.647,11.582l1.9.235a4.634,4.634,0,0,1-1.665,2.585A5.64,5.64,0,0,1,169,13.855a5.726,5.726,0,0,1-1.395-4.111,5.994,5.994,0,0,1,1.41-4.251,4.773,4.773,0,0,1,3.658-1.513,4.641,4.641,0,0,1,3.555,1.482,5.888,5.888,0,0,1,1.379,4.169c0,.109,0,.272-.011.491h-8.092a4.172,4.172,0,0,0,1.011,2.738,3.011,3.011,0,0,0,2.269.951,2.815,2.815,0,0,0,1.726-.532,3.536,3.536,0,0,0,1.134-1.7m-6.039-2.973h6.059a3.679,3.679,0,0,0-.7-2.054,2.818,2.818,0,0,0-2.278-1.062,2.924,2.924,0,0,0-2.131.848,3.359,3.359,0,0,0-.955,2.269" transform="translate(-4.123 -0.098)" fill="#334798"/>
        <rect id="Rectángulo_439" data-name="Rectángulo 439" width="1.84" height="14.978" transform="translate(175.693)" fill="#334798"/>
        <path id="Trazado_876" data-name="Trazado 876" d="M184.178,11.837,186,11.551a2.545,2.545,0,0,0,.853,1.676,2.975,2.975,0,0,0,1.957.582,2.874,2.874,0,0,0,1.881-.516,1.544,1.544,0,0,0,.613-1.21,1.117,1.117,0,0,0-.541-.981,7.953,7.953,0,0,0-1.88-.623,17.159,17.159,0,0,1-2.805-.884,2.678,2.678,0,0,1-1.589-2.488,2.794,2.794,0,0,1,.333-1.343,2.98,2.98,0,0,1,.9-1.027,3.819,3.819,0,0,1,1.17-.536,5.57,5.57,0,0,1,1.589-.219,6.266,6.266,0,0,1,2.242.368,3.063,3.063,0,0,1,1.426,1,3.908,3.908,0,0,1,.633,1.681l-1.8.246a1.963,1.963,0,0,0-.71-1.308,2.6,2.6,0,0,0-1.66-.47,3.016,3.016,0,0,0-1.808.418,1.221,1.221,0,0,0-.541.981,1.012,1.012,0,0,0,.225.644,1.607,1.607,0,0,0,.7.491q.276.1,1.625.47a22.807,22.807,0,0,1,2.722.852,2.771,2.771,0,0,1,1.211.966,2.7,2.7,0,0,1,.439,1.573,3.085,3.085,0,0,1-.536,1.732,3.469,3.469,0,0,1-1.548,1.257,5.644,5.644,0,0,1-2.288.444,5.1,5.1,0,0,1-3.224-.879,4.086,4.086,0,0,1-1.415-2.605" transform="translate(-4.531 -0.098)" fill="#334798"/>
        <path id="Trazado_877" data-name="Trazado 877" d="M195.669,0h1.839V2.115h-1.839Zm0,4.127h1.839v10.85h-1.839Z" transform="translate(-4.814 0)" fill="#334798"/>
        <path id="Trazado_878" data-name="Trazado 878" d="M200.424,15.076V4.226h1.655V5.768a3.9,3.9,0,0,1,3.454-1.788,4.551,4.551,0,0,1,1.8.352,2.855,2.855,0,0,1,1.231.925,3.566,3.566,0,0,1,.573,1.36,10.633,10.633,0,0,1,.1,1.788v6.672H207.4v-6.6a4.971,4.971,0,0,0-.215-1.681,1.763,1.763,0,0,0-.762-.889,2.417,2.417,0,0,0-1.282-.333,2.981,2.981,0,0,0-2.029.746,3.68,3.68,0,0,0-.852,2.83v5.927Z" transform="translate(-4.931 -0.098)" fill="#334798"/>
        <path id="Trazado_879" data-name="Trazado 879" d="M212.366,14.978V0H214.2V8.542l4.353-4.414h2.38l-4.148,4.025,4.568,6.825h-2.269L215.5,9.43l-1.3,1.247v4.3Z" transform="translate(-5.225 0)" fill="#334798"/>
        <path id="Trazado_880" data-name="Trazado 880" d="M223.093,0h1.839V2.115h-1.839Zm0,4.127h1.839v10.85h-1.839Z" transform="translate(-5.489 0)" fill="#334798"/>
        <path id="Trazado_881" data-name="Trazado 881" d="M152.983,34.964V19.986h5.16a12.5,12.5,0,0,1,2.667.215,5.078,5.078,0,0,1,2.2,1.073,6.087,6.087,0,0,1,1.772,2.559,10.039,10.039,0,0,1,.588,3.561,10.438,10.438,0,0,1-.4,3.024,7.312,7.312,0,0,1-1.021,2.181,5.429,5.429,0,0,1-1.365,1.36,5.556,5.556,0,0,1-1.788.75,10.184,10.184,0,0,1-2.406.256Zm1.982-1.767h3.2a7.748,7.748,0,0,0,2.324-.276,3.318,3.318,0,0,0,1.343-.776,4.711,4.711,0,0,0,1.1-1.9,9.258,9.258,0,0,0,.394-2.886,6.974,6.974,0,0,0-.772-3.612,3.892,3.892,0,0,0-1.875-1.691,7.767,7.767,0,0,0-2.565-.306h-3.147Z" transform="translate(-3.764 -0.492)" fill="#334798"/>
        <path id="Trazado_882" data-name="Trazado 882" d="M168.214,35.062V24.212h1.655v1.645a4.494,4.494,0,0,1,1.17-1.523,2.041,2.041,0,0,1,1.179-.368,3.586,3.586,0,0,1,1.89.593l-.633,1.706a2.636,2.636,0,0,0-1.349-.4,1.745,1.745,0,0,0-1.083.364,1.962,1.962,0,0,0-.685,1.006,7.154,7.154,0,0,0-.306,2.146v5.681Z" transform="translate(-4.138 -0.59)" fill="#334798"/>
        <path id="Trazado_883" data-name="Trazado 883" d="M175.39,19.985h1.839V22.1H175.39Zm0,4.128h1.839v10.85H175.39Z" transform="translate(-4.315 -0.492)" fill="#334798"/>
        <path id="Trazado_884" data-name="Trazado 884" d="M180.145,35.062V24.212H181.8v1.542a3.9,3.9,0,0,1,3.454-1.788,4.551,4.551,0,0,1,1.8.352,2.855,2.855,0,0,1,1.231.925,3.567,3.567,0,0,1,.573,1.36,10.641,10.641,0,0,1,.1,1.788v6.672h-1.839v-6.6a4.972,4.972,0,0,0-.215-1.681,1.763,1.763,0,0,0-.762-.889,2.417,2.417,0,0,0-1.282-.333,2.981,2.981,0,0,0-2.029.746,3.68,3.68,0,0,0-.853,2.83v5.927Z" transform="translate(-4.432 -0.59)" fill="#334798"/>
        <path id="Trazado_885" data-name="Trazado 885" d="M192.087,34.964V19.986h1.839v8.542l4.353-4.414h2.38l-4.148,4.025,4.568,6.825h-2.269l-3.587-5.548-1.3,1.247v4.3Z" transform="translate(-4.726 -0.492)" fill="#334798"/>
        <path id="Trazado_886" data-name="Trazado 886" d="M153.088,54.95V39.972h10.105v1.767H155.07v4.639h7.03v1.767h-7.03v6.8Z" transform="translate(-3.766 -0.984)" fill="#334798"/>
        <path id="Trazado_887" data-name="Trazado 887" d="M173.259,51.553l1.9.235a4.634,4.634,0,0,1-1.665,2.585,5.64,5.64,0,0,1-6.881-.547,5.727,5.727,0,0,1-1.395-4.111,5.994,5.994,0,0,1,1.41-4.251,4.773,4.773,0,0,1,3.658-1.513,4.641,4.641,0,0,1,3.555,1.482,5.887,5.887,0,0,1,1.379,4.169c0,.109,0,.272-.011.491h-8.092a4.172,4.172,0,0,0,1.011,2.738,3.011,3.011,0,0,0,2.269.951,2.815,2.815,0,0,0,1.726-.532,3.536,3.536,0,0,0,1.134-1.7m-6.039-2.973h6.059a3.68,3.68,0,0,0-.7-2.054,2.817,2.817,0,0,0-2.278-1.062,2.924,2.924,0,0,0-2.131.848,3.358,3.358,0,0,0-.955,2.269" transform="translate(-4.065 -1.082)" fill="#334798"/>
        <path id="Trazado_888" data-name="Trazado 888" d="M177.023,51.809l1.819-.286a2.545,2.545,0,0,0,.853,1.676,2.975,2.975,0,0,0,1.957.582,2.874,2.874,0,0,0,1.881-.516,1.544,1.544,0,0,0,.613-1.21,1.117,1.117,0,0,0-.541-.981,7.954,7.954,0,0,0-1.88-.623,17.159,17.159,0,0,1-2.805-.884,2.678,2.678,0,0,1-1.589-2.488,2.794,2.794,0,0,1,.333-1.343,2.981,2.981,0,0,1,.9-1.027,3.818,3.818,0,0,1,1.169-.536,5.571,5.571,0,0,1,1.589-.219,6.266,6.266,0,0,1,2.242.368,3.063,3.063,0,0,1,1.426,1A3.908,3.908,0,0,1,185.626,47l-1.8.246a1.963,1.963,0,0,0-.71-1.308,2.6,2.6,0,0,0-1.66-.47,3.016,3.016,0,0,0-1.808.418,1.221,1.221,0,0,0-.541.981,1.012,1.012,0,0,0,.225.644,1.608,1.608,0,0,0,.7.491q.277.1,1.625.47a22.814,22.814,0,0,1,2.722.853,2.772,2.772,0,0,1,1.211.966,2.7,2.7,0,0,1,.439,1.573,3.085,3.085,0,0,1-.536,1.732,3.469,3.469,0,0,1-1.548,1.257,5.644,5.644,0,0,1-2.288.444,5.1,5.1,0,0,1-3.224-.879,4.086,4.086,0,0,1-1.415-2.605" transform="translate(-4.355 -1.082)" fill="#334798"/>
        <path id="Trazado_889" data-name="Trazado 889" d="M192.494,53.314l.266,1.624a6.812,6.812,0,0,1-1.39.164,3.137,3.137,0,0,1-1.553-.317,1.777,1.777,0,0,1-.777-.832,6.616,6.616,0,0,1-.224-2.172V45.539h-1.349V44.108h1.349V41.42l1.829-1.1v3.791h1.849v1.431h-1.849v6.344a3.177,3.177,0,0,0,.1,1.011.764.764,0,0,0,.316.358,1.223,1.223,0,0,0,.629.133,5.953,5.953,0,0,0,.807-.071" transform="translate(-4.612 -0.992)" fill="#334798"/>
        <path id="Trazado_890" data-name="Trazado 890" d="M194.475,39.971h1.839v2.115h-1.839Zm0,4.128h1.839v10.85h-1.839Z" transform="translate(-4.784 -0.984)" fill="#334798"/>
        <path id="Trazado_891" data-name="Trazado 891" d="M202.217,55.054,198.089,44.2h1.941l2.329,6.5q.379,1.053.7,2.187.244-.857.685-2.063l2.411-6.621h1.89l-4.107,10.85Z" transform="translate(-4.873 -1.088)" fill="#334798"/>
        <path id="Trazado_892" data-name="Trazado 892" d="M217.022,53.709a6.838,6.838,0,0,1-1.966,1.226,5.7,5.7,0,0,1-2.029.358,3.947,3.947,0,0,1-2.749-.874,2.884,2.884,0,0,1-.96-2.233,2.967,2.967,0,0,1,.363-1.455,3.012,3.012,0,0,1,.95-1.058,4.459,4.459,0,0,1,1.323-.6,12.954,12.954,0,0,1,1.635-.276,16.783,16.783,0,0,0,3.28-.634c.007-.252.01-.412.01-.48a2.033,2.033,0,0,0-.521-1.584,3.077,3.077,0,0,0-2.094-.623,3.244,3.244,0,0,0-1.916.456,2.774,2.774,0,0,0-.915,1.608l-1.8-.245a4.455,4.455,0,0,1,.807-1.865,3.53,3.53,0,0,1,1.625-1.092,7.238,7.238,0,0,1,2.462-.383,6.506,6.506,0,0,1,2.258.327,2.971,2.971,0,0,1,1.277.822,2.889,2.889,0,0,1,.573,1.251,10.348,10.348,0,0,1,.092,1.7V50.5a26.047,26.047,0,0,0,.118,3.244,4.1,4.1,0,0,0,.464,1.3h-1.921a3.888,3.888,0,0,1-.368-1.338m-.153-4.107a13.439,13.439,0,0,1-3,.694,7.043,7.043,0,0,0-1.6.368,1.612,1.612,0,0,0-.726.6,1.626,1.626,0,0,0,.3,2.1,2.4,2.4,0,0,0,1.63.491,3.792,3.792,0,0,0,1.89-.465,2.862,2.862,0,0,0,1.215-1.272,4.437,4.437,0,0,0,.3-1.84Z" transform="translate(-5.15 -1.082)" fill="#334798"/>
        <rect id="Rectángulo_440" data-name="Rectángulo 440" width="1.84" height="14.978" transform="translate(216.388 38.988)" fill="#334798"/>
        <path id="Trazado_893" data-name="Trazado 893" d="M44.276,5.913,47.165,0H28.63l2.889,5.912v19.83H15.646V5.913L18.535,0H0L2.889,5.913V48.248L0,54.16H18.535l-2.888-5.912V36.464H31.519V48.248L28.63,54.16H47.165l-2.889-5.912Z" transform="translate(0 0)" fill="#334798"/>
        <path id="Trazado_894" data-name="Trazado 894" d="M135.658,11.689,141.006,0H100.981l2.889,5.913V48.248l-2.889,5.911h18.535l-2.889-5.911V36.465h7.693l4.906-10.723h-12.6V11.689Z" transform="translate(-2.484 0)" fill="#334798"/>
        <path id="Trazado_895" data-name="Trazado 895" d="M78.827,0H52.173l2.889,5.913V48.248L52.173,54.16H78.827a6.522,6.522,0,0,0,5.4-2.87l9.811-14.5a17.329,17.329,0,0,0,0-19.422l-9.811-14.5A6.521,6.521,0,0,0,78.827,0M73.112,48.248H67.82V5.913h5.29A3.432,3.432,0,0,1,76.2,7.844l6.92,14.245a11.418,11.418,0,0,1,0,9.983L76.2,46.316a3.433,3.433,0,0,1-3.088,1.932" transform="translate(-1.284 0)" fill="#334798"/>
      </g>
    </g>
  </g>
</svg>
