<svg xmlns="http://www.w3.org/2000/svg" width="59.971" height="23.448" viewBox="0 0 59.971 23.448">
  <g id="Grupo_2" data-name="Grupo 2" transform="translate(0 0)">
    <path id="Trazado_896" data-name="Trazado 896" d="M19.169,2.56,20.42,0H12.395L13.646,2.56v8.585H6.774V2.56L8.024,0H0L1.251,2.56V20.889L0,23.448H8.024l-1.25-2.559v-5.1h6.872v5.1l-1.251,2.559H20.42l-1.251-2.559Z" transform="translate(0 0)" fill="#f7f4ea"/>
    <path id="Trazado_897" data-name="Trazado 897" d="M115.994,5.061,118.309,0H100.981l1.251,2.56V20.889l-1.251,2.559h8.025l-1.251-2.559v-5.1h3.331l2.124-4.642h-5.455V5.061Z" transform="translate(-58.338 0)" fill="#f7f4ea"/>
    <path id="Trazado_898" data-name="Trazado 898" d="M63.712,0H52.173l1.251,2.56V20.888l-1.251,2.559H63.712a2.824,2.824,0,0,0,2.339-1.242L70.3,15.928a7.5,7.5,0,0,0,0-8.409L66.051,1.243A2.823,2.823,0,0,0,63.712,0M61.238,20.888H58.947V2.56h2.29a1.486,1.486,0,0,1,1.337.836l3,6.167a4.943,4.943,0,0,1,0,4.322l-3,6.167a1.486,1.486,0,0,1-1.337.837" transform="translate(-30.141 0)" fill="#f7f4ea"/>
  </g>
</svg>
