<svg xmlns="http://www.w3.org/2000/svg" width="46.029" height="40.31" viewBox="0 0 46.029 40.31">
  <path id="Icon_fa-solid-map-location" data-name="Icon fa-solid-map-location" d="M24.2,24.932c2.565-3.2,8.407-10.98,8.407-15.343a9.589,9.589,0,0,0-19.179,0c0,4.363,5.842,12.139,8.407,15.343A1.5,1.5,0,0,0,24.2,24.932ZM33.243,40.2,44.822,35.56a1.92,1.92,0,0,0,1.207-1.782V12.146A1.917,1.917,0,0,0,43.4,10.364l-9.27,3.708c-.04.1-.08.2-.12.3-.232.543-.487,1.095-.767,1.646ZM1.207,14.967A1.928,1.928,0,0,0,0,16.749v21.64a1.917,1.917,0,0,0,2.629,1.782L12.786,36.1V16.014c-.28-.551-.535-1.1-.767-1.646A15.168,15.168,0,0,1,11,11.052L1.2,14.967Zm29.479,5.41c-1.638,2.5-3.38,4.763-4.491,6.153a4.064,4.064,0,0,1-6.361,0c-1.111-1.39-2.853-3.652-4.491-6.153V35.912L30.686,40.3V20.377Z" fill="#fff"/>
</svg>
