<svg xmlns="http://www.w3.org/2000/svg" width="45.714" height="45.714" viewBox="0 0 45.714 45.714">
  <path id="Icon_akar-instagram-fill" data-name="Icon akar-instagram-fill" d="M14.934,1.637c2.437-.112,3.215-.137,9.423-.137s6.986.027,9.421.137A16.821,16.821,0,0,1,39.331,2.7a11.7,11.7,0,0,1,6.683,6.685,16.811,16.811,0,0,1,1.064,5.548c.112,2.442.137,3.219.137,9.425s-.027,6.986-.137,9.423a16.757,16.757,0,0,1-1.064,5.548,11.669,11.669,0,0,1-6.683,6.685,16.811,16.811,0,0,1-5.548,1.064c-2.439.112-3.217.137-9.425.137s-6.986-.027-9.423-.137a16.757,16.757,0,0,1-5.548-1.064,11.214,11.214,0,0,1-4.05-2.635A11.2,11.2,0,0,1,2.7,39.331a16.87,16.87,0,0,1-1.062-5.548c-.112-2.442-.137-3.219-.137-9.425s.027-6.986.137-9.421A16.821,16.821,0,0,1,2.7,9.384,11.212,11.212,0,0,1,5.338,5.336,11.2,11.2,0,0,1,9.384,2.7a16.87,16.87,0,0,1,5.548-1.062Zm18.66,4.114c-2.41-.11-3.134-.133-9.236-.133s-6.826.023-9.236.133a12.633,12.633,0,0,0-4.245.788A7.1,7.1,0,0,0,8.247,8.247a7.09,7.09,0,0,0-1.708,2.629,12.633,12.633,0,0,0-.788,4.245c-.11,2.41-.133,3.134-.133,9.236s.023,6.826.133,9.236a12.633,12.633,0,0,0,.788,4.245,7.1,7.1,0,0,0,1.708,2.629,7.1,7.1,0,0,0,2.629,1.708,12.634,12.634,0,0,0,4.245.788c2.41.11,3.131.133,9.236.133s6.826-.023,9.236-.133a12.634,12.634,0,0,0,4.245-.788,7.549,7.549,0,0,0,4.337-4.337,12.634,12.634,0,0,0,.788-4.245c.11-2.41.133-3.134.133-9.236s-.023-6.826-.133-9.236a12.634,12.634,0,0,0-.788-4.245,7.1,7.1,0,0,0-1.708-2.629,7.092,7.092,0,0,0-2.629-1.708,12.633,12.633,0,0,0-4.245-.788ZM21.438,31.4a7.626,7.626,0,1,0-4.7-7.046,7.624,7.624,0,0,0,4.7,7.046ZM16.05,16.05a11.749,11.749,0,1,1,0,16.615,11.749,11.749,0,0,1,0-16.615Zm22.662-1.691a2.778,2.778,0,1,0-3.871-.056A2.778,2.778,0,0,0,38.711,14.358Z" transform="translate(-1.5 -1.5)" fill="#fff"/>
</svg>
