<svg xmlns="http://www.w3.org/2000/svg" width="46.714" height="46.714" viewBox="0 0 46.714 46.714">
  <path id="Icon_ion-ios-world-outline" data-name="Icon ion-ios-world-outline" d="M26.232,3.375h-.055a22.857,22.857,0,0,0,0,45.714h.055a22.857,22.857,0,1,0,0-45.714Zm.912,13.681a33.886,33.886,0,0,0,7.055-.934,41.014,41.014,0,0,1,1.176,9.209H27.144V17.056Zm0-1.835V5.353c2.462.681,4.967,3.967,6.549,9.011a32.089,32.089,0,0,1-6.549.857ZM25.32,5.331v9.9a31.775,31.775,0,0,1-6.6-.879C20.32,9.276,22.837,5.968,25.32,5.331Zm0,11.725V25.32H17.034a41.013,41.013,0,0,1,1.176-9.209,34.416,34.416,0,0,0,7.11.945ZM15.188,25.32H5.232A20.893,20.893,0,0,1,9.99,12.9a33.23,33.23,0,0,0,6.462,2.725A43.113,43.113,0,0,0,15.188,25.32Zm0,1.824a42.592,42.592,0,0,0,1.253,9.692,34.221,34.221,0,0,0-6.462,2.725A20.963,20.963,0,0,1,5.221,27.144Zm1.846,0H25.32V35.4a33.69,33.69,0,0,0-7.11.956,41.013,41.013,0,0,1-1.176-9.209ZM25.32,37.232v9.912c-2.484-.648-5-3.945-6.6-9.022A31.059,31.059,0,0,1,25.32,37.232Zm1.824,9.879v-9.89a32.3,32.3,0,0,1,6.56.868C32.111,43.144,29.617,46.43,27.144,47.111Zm0-11.714V27.144h8.231a41,41,0,0,1-1.176,9.2A33.891,33.891,0,0,0,27.144,35.4ZM37.21,27.144H47.232a20.92,20.92,0,0,1-4.758,12.418,33.792,33.792,0,0,0-6.516-2.747A42.4,42.4,0,0,0,37.21,27.144Zm0-1.824a43.135,43.135,0,0,0-1.242-9.681A34.058,34.058,0,0,0,42.474,12.9a20.9,20.9,0,0,1,4.758,12.429H37.21ZM41.221,11.5a31.782,31.782,0,0,1-5.747,2.374,20.557,20.557,0,0,0-4.341-8.088A21.135,21.135,0,0,1,41.221,11.5ZM21.265,5.8a20.327,20.327,0,0,0-4.319,8.055A31.22,31.22,0,0,1,11.254,11.5,20.894,20.894,0,0,1,21.265,5.8ZM11.243,40.957a31.545,31.545,0,0,1,5.692-2.363,20.525,20.525,0,0,0,4.33,8.066,20.909,20.909,0,0,1-10.022-5.7Zm19.89,5.725a20.538,20.538,0,0,0,4.352-8.1,31.782,31.782,0,0,1,5.747,2.374A21.1,21.1,0,0,1,31.133,46.683Z" transform="translate(-2.875 -2.875)" fill="#fff" stroke="#fff" stroke-width="1"/>
</svg>
